<svg xmlns="http://www.w3.org/2000/svg" viewBox="0 0 232.56 194.33"><defs><style>.cls-1,.cls-3{fill:#f1f2f2;}.cls-1{opacity:0.4;}.cls-2{fill:#e6e7e8;opacity:0.7;}.cls-3{opacity:0.1;}.cls-4{fill:#d1d3d4;opacity:0.95;}.cls-5{fill:#bcbec0;}.cls-6{fill:#6d6e71;}.cls-7{font-size:52.64px;fill:#fff;font-family:SegoeUI-Light, Segoe UI;font-weight:300;}.cls-8{letter-spacing:0.03em;}.cls-9{letter-spacing:0em;}.cls-10{font-family:SegoeUI-Bold, Segoe UI;font-weight:700;}.cls-11{letter-spacing:-0.03em;}.cls-12{letter-spacing:0.01em;}</style></defs><title>자산 1</title><g id="레이어_2" data-name="레이어 2"><g id="Layer_1" data-name="Layer 1"><circle class="cls-1" cx="21.61" cy="48.08" r="21.61" transform="translate(-27.67 29.36) rotate(-45)"/><circle class="cls-2" cx="21.61" cy="74.55" r="21.61" transform="translate(-46.39 37.12) rotate(-45)"/><path class="cls-3" d="M43.22,21.61A21.61,21.61,0,1,1,21.61,0,21.62,21.62,0,0,1,43.22,21.61Z"/><circle class="cls-4" cx="21.61" cy="101.02" r="21.61" transform="translate(-65.1 44.87) rotate(-45)"/><path class="cls-5" d="M43.22,127.49a21.61,21.61,0,1,1-21.61-21.61A21.61,21.61,0,0,1,43.22,127.49Z"/><path class="cls-6" d="M43.22,154a21.61,21.61,0,1,1-21.61-21.61A21.61,21.61,0,0,1,43.22,154Z"/><text class="cls-7" transform="translate(59.86 45.32)">A<tspan class="cls-8" x="33.11" y="0">f</tspan><tspan class="cls-9" x="49.04" y="0">ter</tspan><tspan x="0" y="63.17">Effects</tspan><tspan class="cls-10"><tspan class="cls-11" x="0" y="126.34">K</tspan><tspan x="32.64" y="126.34">OR</tspan><tspan class="cls-12" x="106.93" y="126.34">E</tspan><tspan x="135.69" y="126.34">A</tspan></tspan></text></g></g></svg>