<svg xmlns="http://www.w3.org/2000/svg" viewBox="0 0 564.13 473.69"><defs><style>.cls-1{fill:#f7a59d;}.cls-2{fill:#fde1e0;}.cls-3{fill:#f58d86;opacity:0.5;}.cls-4,.cls-5{fill:#f15542;}.cls-4{opacity:0.3;}.cls-5{opacity:0.1;}.cls-6,.cls-7{fill:#fff;}.cls-7{font-size:128.69px;font-family:SegoeUI-Light, Segoe UI;font-weight:300;}.cls-8{letter-spacing:0.03em;}.cls-9{font-family:SegoeUI-Bold, Segoe UI;font-weight:700;}.cls-10{letter-spacing:-0.03em;}.cls-11{letter-spacing:0em;}.cls-12{letter-spacing:0.01em;}</style></defs><title>자산 1</title><g id="레이어_2" data-name="레이어 2"><g id="Layer_1" data-name="Layer 1"><path class="cls-1" d="M96.8,242.86a48.4,48.4,0,1,1-48.4-48.4A48.4,48.4,0,0,1,96.8,242.86Z"/><path class="cls-2" d="M96.8,302.15a48.4,48.4,0,1,1-48.4-48.4A48.4,48.4,0,0,1,96.8,302.15Z"/><path class="cls-3" d="M96.8,183.57a48.4,48.4,0,1,1-48.4-48.4A48.4,48.4,0,0,1,96.8,183.57Z"/><path class="cls-4" d="M96.8,124.28a48.4,48.4,0,1,1-48.4-48.4A48.4,48.4,0,0,1,96.8,124.28Z"/><path class="cls-5" d="M96.8,65A48.4,48.4,0,1,1,48.4,16.6,48.4,48.4,0,0,1,96.8,65Z"/><path class="cls-6" d="M96.8,361.44A48.4,48.4,0,1,1,48.4,313,48.4,48.4,0,0,1,96.8,361.44Z"/><text class="cls-7" transform="translate(141.92 109.4)">A<tspan class="cls-8" x="80.94" y="0">f</tspan><tspan x="119.9" y="0">ter</tspan><tspan x="0" y="154.43">Effects</tspan><tspan class="cls-9"><tspan class="cls-10" x="0" y="308.86">K</tspan><tspan class="cls-11" x="79.81" y="308.86">OR</tspan><tspan class="cls-12" x="261.41" y="308.86">E</tspan><tspan x="331.73" y="308.86">A</tspan></tspan></text></g></g></svg>